# Blender 5.1.2
# www.blender.org
mtllib foto-autore.mtl
o Cubo
v -0.431245 0.013661 0.444856
v -0.431245 0.013661 -0.411126
v -0.431245 0.009793 0.444856
v -0.431245 0.009793 -0.411126
v 0.431211 0.013661 0.444856
v 0.431211 0.013661 -0.411126
v 0.431211 0.009793 0.444856
v 0.431211 0.009793 -0.411126
vn -1.0000 -0.0000 -0.0000
vn -0.0000 -1.0000 -0.0000
vn 1.0000 -0.0000 -0.0000
vn -0.0000 1.0000 -0.0000
vn -0.0000 -0.0000 1.0000
vn -0.0000 -0.0000 -1.0000
vt 0.998694 -1.992823
vt 0.001306 -0.995435
vt 0.001306 -1.992823
vt 0.998694 -0.995435
vt 0.001306 0.001953
vt 0.998694 0.001953
vt 0.001306 0.999341
vt 0.998694 0.999341
vt 0.001306 1.996730
vt -0.996082 0.999341
vt -0.996082 0.001953
vt 1.996082 0.001953
vt 0.998694 1.996730
vt 1.996082 0.999341
s 0
f 2/1/1 3/2/1 1/3/1
f 4/4/2 7/5/2 3/2/2
f 8/6/3 5/7/3 7/5/3
f 6/8/4 1/9/4 5/7/4
f 7/5/5 1/10/5 3/11/5
f 4/12/6 6/8/6 8/6/6
f 2/1/1 4/4/1 3/2/1
f 4/4/2 8/6/2 7/5/2
f 8/6/3 6/8/3 5/7/3
f 6/8/4 2/13/4 1/9/4
f 7/5/5 5/7/5 1/10/5
f 4/12/6 2/14/6 6/8/6
